<mxfile host="app.diagrams.net" agent="Mozilla/5.0 (Windows NT 10.0; Win64; x64) AppleWebKit/537.36 (KHTML, like Gecko) Chrome/128.0.0.0 Safari/537.36" version="24.7.13">
  <diagram name="Page-1" id="as_nq-n-DWCYD5p-W_CB">
    <mxGraphModel dx="2607" dy="1342" grid="1" gridSize="10" guides="1" tooltips="1" connect="1" arrows="1" fold="1" page="1" pageScale="1" pageWidth="3300" pageHeight="4681" math="0" shadow="0">
      <root>
        <mxCell id="0" />
        <mxCell id="1" parent="0" />
        <mxCell id="Ow2IpyKAjDjnXuldgJKP-1" value="" style="ellipse;html=1;shape=startState;fillColor=#000000;strokeColor=#ff0000;strokeWidth=3;fontSize=14;" parent="1" vertex="1">
          <mxGeometry x="970" y="250" width="30" height="30" as="geometry" />
        </mxCell>
        <mxCell id="Ow2IpyKAjDjnXuldgJKP-2" value="" style="edgeStyle=orthogonalEdgeStyle;html=1;verticalAlign=bottom;endArrow=open;endSize=8;strokeColor=#ff0000;rounded=0;strokeWidth=3;fontSize=14;" parent="1" source="Ow2IpyKAjDjnXuldgJKP-1" edge="1">
          <mxGeometry relative="1" as="geometry">
            <mxPoint x="985" y="340" as="targetPoint" />
          </mxGeometry>
        </mxCell>
        <mxCell id="Ow2IpyKAjDjnXuldgJKP-3" value="START" style="text;html=1;align=center;verticalAlign=middle;resizable=0;points=[];autosize=1;strokeColor=none;fillColor=none;strokeWidth=3;fontSize=14;" parent="1" vertex="1">
          <mxGeometry x="950" y="220" width="70" height="30" as="geometry" />
        </mxCell>
        <mxCell id="Ow2IpyKAjDjnXuldgJKP-6" style="edgeStyle=orthogonalEdgeStyle;rounded=0;orthogonalLoop=1;jettySize=auto;html=1;exitX=0.5;exitY=1;exitDx=0;exitDy=0;strokeWidth=3;fontSize=14;" parent="1" edge="1">
          <mxGeometry relative="1" as="geometry">
            <mxPoint x="982.1999999999998" y="570" as="targetPoint" />
            <mxPoint x="982" y="440" as="sourcePoint" />
          </mxGeometry>
        </mxCell>
        <mxCell id="Ow2IpyKAjDjnXuldgJKP-4" value="Opens Unclassified Scans folder in the DMS and Selects the Scanner used for scanning&amp;nbsp; the proposal form and supporting documents" style="rounded=1;whiteSpace=wrap;html=1;absoluteArcSize=1;arcSize=14;strokeWidth=3;fontSize=14;" parent="1" vertex="1">
          <mxGeometry x="870" y="340" width="220" height="100" as="geometry" />
        </mxCell>
        <mxCell id="Ow2IpyKAjDjnXuldgJKP-5" value="Digital Or Filing Administrator or Business Administrator" style="text;html=1;align=center;verticalAlign=middle;resizable=0;points=[];autosize=1;strokeColor=none;fillColor=none;strokeWidth=3;fontSize=14;" parent="1" vertex="1">
          <mxGeometry x="1000" y="290" width="370" height="30" as="geometry" />
        </mxCell>
        <mxCell id="Ow2IpyKAjDjnXuldgJKP-9" style="edgeStyle=orthogonalEdgeStyle;rounded=0;orthogonalLoop=1;jettySize=auto;html=1;exitX=1;exitY=0.5;exitDx=0;exitDy=0;entryX=0;entryY=0.5;entryDx=0;entryDy=0;strokeWidth=3;fontSize=14;" parent="1" source="Ow2IpyKAjDjnXuldgJKP-7" target="Ow2IpyKAjDjnXuldgJKP-8" edge="1">
          <mxGeometry relative="1" as="geometry" />
        </mxCell>
        <mxCell id="Ow2IpyKAjDjnXuldgJKP-7" value="Opens the&amp;nbsp; documents they want to capture into the DMS" style="rounded=1;whiteSpace=wrap;html=1;absoluteArcSize=1;arcSize=14;strokeWidth=3;fontSize=14;" parent="1" vertex="1">
          <mxGeometry x="870" y="570" width="220" height="100" as="geometry" />
        </mxCell>
        <mxCell id="Y2sg9jXa33ZKw9xSLEN6-1" style="edgeStyle=orthogonalEdgeStyle;rounded=0;orthogonalLoop=1;jettySize=auto;html=1;exitX=0.5;exitY=1;exitDx=0;exitDy=0;strokeWidth=3;fontSize=14;" parent="1" source="Ow2IpyKAjDjnXuldgJKP-8" edge="1">
          <mxGeometry relative="1" as="geometry">
            <mxPoint x="1350" y="780" as="targetPoint" />
          </mxGeometry>
        </mxCell>
        <mxCell id="Ow2IpyKAjDjnXuldgJKP-8" value="Compares Hard Copies to Soft copies&lt;br style=&quot;font-size: 14px;&quot;&gt;to Confirm whether all documents have been scanned." style="rounded=1;whiteSpace=wrap;html=1;absoluteArcSize=1;arcSize=14;strokeWidth=3;fontSize=14;" parent="1" vertex="1">
          <mxGeometry x="1240" y="570" width="220" height="100" as="geometry" />
        </mxCell>
        <mxCell id="Y2sg9jXa33ZKw9xSLEN6-5" style="edgeStyle=orthogonalEdgeStyle;rounded=0;orthogonalLoop=1;jettySize=auto;html=1;exitX=1;exitY=0.5;exitDx=0;exitDy=0;exitPerimeter=0;strokeWidth=3;fontSize=14;" parent="1" source="Y2sg9jXa33ZKw9xSLEN6-2" edge="1">
          <mxGeometry relative="1" as="geometry">
            <mxPoint x="1550" y="849.952380952381" as="targetPoint" />
          </mxGeometry>
        </mxCell>
        <mxCell id="frMRrlWlapuxDXnl2YCL-2" style="edgeStyle=orthogonalEdgeStyle;rounded=0;orthogonalLoop=1;jettySize=auto;html=1;exitX=0;exitY=0.5;exitDx=0;exitDy=0;exitPerimeter=0;entryX=1;entryY=0.5;entryDx=0;entryDy=0;strokeWidth=3;" edge="1" parent="1" source="Y2sg9jXa33ZKw9xSLEN6-2" target="frMRrlWlapuxDXnl2YCL-1">
          <mxGeometry relative="1" as="geometry" />
        </mxCell>
        <mxCell id="Y2sg9jXa33ZKw9xSLEN6-2" value="Are all hard copies&lt;br style=&quot;font-size: 14px;&quot;&gt;scanned?" style="strokeWidth=3;html=1;shape=mxgraph.flowchart.decision;whiteSpace=wrap;fontSize=14;" parent="1" vertex="1">
          <mxGeometry x="1280" y="780" width="140" height="140" as="geometry" />
        </mxCell>
        <mxCell id="Y2sg9jXa33ZKw9xSLEN6-4" value="NO" style="text;html=1;align=center;verticalAlign=middle;resizable=0;points=[];autosize=1;strokeColor=none;fillColor=none;strokeWidth=3;fontSize=14;" parent="1" vertex="1">
          <mxGeometry x="1220" y="818" width="40" height="30" as="geometry" />
        </mxCell>
        <mxCell id="Y2sg9jXa33ZKw9xSLEN6-6" value="YES" style="text;html=1;align=center;verticalAlign=middle;resizable=0;points=[];autosize=1;strokeColor=none;fillColor=none;strokeWidth=3;fontSize=14;" parent="1" vertex="1">
          <mxGeometry x="1430" y="818" width="50" height="30" as="geometry" />
        </mxCell>
        <mxCell id="Y2sg9jXa33ZKw9xSLEN6-8" style="edgeStyle=orthogonalEdgeStyle;rounded=0;orthogonalLoop=1;jettySize=auto;html=1;exitX=1;exitY=0.5;exitDx=0;exitDy=0;strokeWidth=3;fontSize=14;" parent="1" source="Y2sg9jXa33ZKw9xSLEN6-7" edge="1">
          <mxGeometry relative="1" as="geometry">
            <mxPoint x="1950" y="849.5" as="targetPoint" />
          </mxGeometry>
        </mxCell>
        <mxCell id="Y2sg9jXa33ZKw9xSLEN6-7" value="Confirms that the policy holder names are correct" style="rounded=1;whiteSpace=wrap;html=1;absoluteArcSize=1;arcSize=14;strokeWidth=3;fontSize=14;" parent="1" vertex="1">
          <mxGeometry x="1550" y="800" width="220" height="100" as="geometry" />
        </mxCell>
        <mxCell id="Y2sg9jXa33ZKw9xSLEN6-10" style="edgeStyle=orthogonalEdgeStyle;rounded=0;orthogonalLoop=1;jettySize=auto;html=1;exitX=0.5;exitY=1;exitDx=0;exitDy=0;exitPerimeter=0;strokeWidth=3;fontSize=14;" parent="1" source="Y2sg9jXa33ZKw9xSLEN6-9" edge="1">
          <mxGeometry relative="1" as="geometry">
            <mxPoint x="2029.5" y="1070" as="targetPoint" />
          </mxGeometry>
        </mxCell>
        <mxCell id="Y2sg9jXa33ZKw9xSLEN6-9" value="Are policy holder names&lt;br style=&quot;font-size: 14px;&quot;&gt;correct?" style="strokeWidth=3;html=1;shape=mxgraph.flowchart.decision;whiteSpace=wrap;fontSize=14;" parent="1" vertex="1">
          <mxGeometry x="1950" y="770" width="160" height="160" as="geometry" />
        </mxCell>
        <mxCell id="Y2sg9jXa33ZKw9xSLEN6-12" style="edgeStyle=orthogonalEdgeStyle;rounded=0;orthogonalLoop=1;jettySize=auto;html=1;exitX=1;exitY=0.5;exitDx=0;exitDy=0;strokeWidth=3;fontSize=14;" parent="1" source="Y2sg9jXa33ZKw9xSLEN6-11" edge="1">
          <mxGeometry relative="1" as="geometry">
            <mxPoint x="2240" y="1119.9130434782608" as="targetPoint" />
          </mxGeometry>
        </mxCell>
        <mxCell id="Y2sg9jXa33ZKw9xSLEN6-11" value="Type in using the policy number on the proposal form, the system then populates&amp;nbsp; policy holder names linked to that policy." style="rounded=1;whiteSpace=wrap;html=1;absoluteArcSize=1;arcSize=14;strokeWidth=3;fontSize=14;" parent="1" vertex="1">
          <mxGeometry x="1920" y="1070" width="220" height="100" as="geometry" />
        </mxCell>
        <mxCell id="Y2sg9jXa33ZKw9xSLEN6-13" value="Clicks on the&amp;nbsp; documents grouping and selects the product name" style="rounded=1;whiteSpace=wrap;html=1;absoluteArcSize=1;arcSize=14;strokeWidth=3;fontSize=14;" parent="1" vertex="1">
          <mxGeometry x="2240" y="1070" width="220" height="100" as="geometry" />
        </mxCell>
        <mxCell id="Y2sg9jXa33ZKw9xSLEN6-17" style="edgeStyle=orthogonalEdgeStyle;rounded=0;orthogonalLoop=1;jettySize=auto;html=1;exitX=0.5;exitY=0;exitDx=0;exitDy=0;strokeWidth=3;fontSize=14;" parent="1" source="Y2sg9jXa33ZKw9xSLEN6-14" target="Y2sg9jXa33ZKw9xSLEN6-16" edge="1">
          <mxGeometry relative="1" as="geometry" />
        </mxCell>
        <mxCell id="Y2sg9jXa33ZKw9xSLEN6-14" value="Clicks on add property and&amp;nbsp; selects activity details and inputs submission date and time" style="rounded=1;whiteSpace=wrap;html=1;absoluteArcSize=1;arcSize=14;strokeWidth=3;fontSize=14;" parent="1" vertex="1">
          <mxGeometry x="2250" y="818" width="220" height="100" as="geometry" />
        </mxCell>
        <mxCell id="Y2sg9jXa33ZKw9xSLEN6-15" style="edgeStyle=orthogonalEdgeStyle;rounded=0;orthogonalLoop=1;jettySize=auto;html=1;entryX=0.452;entryY=0.994;entryDx=0;entryDy=0;entryPerimeter=0;strokeWidth=3;fontSize=14;" parent="1" source="Y2sg9jXa33ZKw9xSLEN6-13" target="Y2sg9jXa33ZKw9xSLEN6-14" edge="1">
          <mxGeometry relative="1" as="geometry" />
        </mxCell>
        <mxCell id="Y2sg9jXa33ZKw9xSLEN6-16" value="Saves The Document" style="rounded=1;whiteSpace=wrap;html=1;absoluteArcSize=1;arcSize=14;strokeWidth=3;fontSize=14;" parent="1" vertex="1">
          <mxGeometry x="2250" y="620" width="220" height="100" as="geometry" />
        </mxCell>
        <mxCell id="Y2sg9jXa33ZKw9xSLEN6-21" style="edgeStyle=orthogonalEdgeStyle;rounded=0;orthogonalLoop=1;jettySize=auto;html=1;exitX=0.5;exitY=0;exitDx=0;exitDy=0;strokeWidth=3;fontSize=14;" parent="1" source="Y2sg9jXa33ZKw9xSLEN6-18" edge="1">
          <mxGeometry relative="1" as="geometry">
            <mxPoint x="2369.916666666667" y="360" as="targetPoint" />
          </mxGeometry>
        </mxCell>
        <mxCell id="Y2sg9jXa33ZKw9xSLEN6-18" value="Digital Filing Administrator&#39;s Name, time and date&amp;nbsp; reflects in the&amp;nbsp; DMS attached to&amp;nbsp; the policy number&amp;nbsp;" style="rounded=1;whiteSpace=wrap;html=1;absoluteArcSize=1;arcSize=14;strokeWidth=3;fontSize=14;" parent="1" vertex="1">
          <mxGeometry x="2260" y="440" width="220" height="100" as="geometry" />
        </mxCell>
        <mxCell id="Y2sg9jXa33ZKw9xSLEN6-20" style="edgeStyle=orthogonalEdgeStyle;rounded=0;orthogonalLoop=1;jettySize=auto;html=1;exitX=0.5;exitY=0;exitDx=0;exitDy=0;entryX=0.45;entryY=1.012;entryDx=0;entryDy=0;entryPerimeter=0;strokeWidth=3;fontSize=14;" parent="1" source="Y2sg9jXa33ZKw9xSLEN6-16" target="Y2sg9jXa33ZKw9xSLEN6-18" edge="1">
          <mxGeometry relative="1" as="geometry" />
        </mxCell>
        <mxCell id="Y2sg9jXa33ZKw9xSLEN6-23" style="edgeStyle=orthogonalEdgeStyle;rounded=0;orthogonalLoop=1;jettySize=auto;html=1;exitX=0;exitY=0.5;exitDx=0;exitDy=0;strokeWidth=3;fontSize=14;" parent="1" source="Y2sg9jXa33ZKw9xSLEN6-22" edge="1">
          <mxGeometry relative="1" as="geometry">
            <mxPoint x="2100" y="310" as="targetPoint" />
          </mxGeometry>
        </mxCell>
        <mxCell id="Y2sg9jXa33ZKw9xSLEN6-22" value="Document moves from unclassified to reporting views" style="rounded=1;whiteSpace=wrap;html=1;absoluteArcSize=1;arcSize=14;strokeWidth=3;fontSize=14;" parent="1" vertex="1">
          <mxGeometry x="2260" y="260" width="220" height="100" as="geometry" />
        </mxCell>
        <mxCell id="Y2sg9jXa33ZKw9xSLEN6-24" value="" style="ellipse;html=1;shape=endState;fillColor=#000000;strokeColor=#ff0000;strokeWidth=3;fontSize=14;" parent="1" vertex="1">
          <mxGeometry x="1961.67" y="240" width="136.67" height="140" as="geometry" />
        </mxCell>
        <mxCell id="Y2sg9jXa33ZKw9xSLEN6-25" value="END" style="text;html=1;align=center;verticalAlign=middle;resizable=0;points=[];autosize=1;strokeColor=none;fillColor=none;" parent="1" vertex="1">
          <mxGeometry x="1900" y="300" width="50" height="30" as="geometry" />
        </mxCell>
        <mxCell id="frMRrlWlapuxDXnl2YCL-1" value="Digital Filing&amp;nbsp; Administrator&lt;br&gt;scans the unscanned hard copies" style="rounded=1;whiteSpace=wrap;html=1;absoluteArcSize=1;arcSize=14;strokeWidth=3;fontSize=14;" vertex="1" parent="1">
          <mxGeometry x="890" y="800" width="220" height="100" as="geometry" />
        </mxCell>
        <mxCell id="frMRrlWlapuxDXnl2YCL-3" style="edgeStyle=orthogonalEdgeStyle;rounded=0;orthogonalLoop=1;jettySize=auto;html=1;exitX=0.5;exitY=0;exitDx=0;exitDy=0;entryX=0.295;entryY=1.02;entryDx=0;entryDy=0;entryPerimeter=0;strokeWidth=3;" edge="1" parent="1" source="frMRrlWlapuxDXnl2YCL-1" target="Ow2IpyKAjDjnXuldgJKP-8">
          <mxGeometry relative="1" as="geometry" />
        </mxCell>
      </root>
    </mxGraphModel>
  </diagram>
</mxfile>
